<svg xmlns="http://www.w3.org/2000/svg" width="16" height="15.556" preserveAspectRatio="xMidYMid" viewBox="0 0 125 121.531">
  <path d="M116.678 31.153c-5.595-9.587-13.184-17.177-22.77-22.772C84.319 2.786 73.852-.011 62.499-.011c-11.352 0-21.822 2.798-31.408 8.392-9.587 5.595-17.176 13.185-22.772 22.772C2.725 40.74-.073 51.209-.073 62.561c0 13.633 3.978 25.894 11.936 36.785 7.957 10.889 18.237 18.425 30.838 22.607 1.466.272 2.552.081 3.258-.568.706-.653 1.06-1.468 1.06-2.445 0-.163-.015-1.629-.041-4.399-.028-2.77-.042-5.187-.042-7.25l-1.874.324c-1.194.219-2.702.313-4.522.285a34.46 34.46 0 0 1-5.662-.57c-1.956-.351-3.775-1.166-5.459-2.441-1.683-1.278-2.878-2.949-3.584-5.012l-.815-1.875c-.542-1.248-1.397-2.634-2.565-4.154-1.168-1.521-2.35-2.553-3.544-3.096l-.571-.406c-.38-.273-.733-.6-1.059-.98-.325-.38-.57-.76-.733-1.141-.163-.379-.028-.693.408-.938.435-.245 1.221-.365 2.362-.365l1.629.244c1.087.217 2.43.868 4.033 1.955 1.602 1.086 2.919 2.498 3.952 4.235 1.25 2.228 2.755 3.925 4.522 5.093 1.764 1.168 3.544 1.751 5.336 1.751 1.792 0 3.339-.136 4.644-.407a16.183 16.183 0 0 0 3.666-1.222c.488-3.639 1.819-6.436 3.991-8.391-3.095-.326-5.879-.817-8.351-1.467-2.471-.652-5.024-1.711-7.658-3.18-2.635-1.466-4.821-3.286-6.559-5.458-1.737-2.173-3.164-5.024-4.276-8.554-1.114-3.532-1.67-7.605-1.67-12.222 0-6.573 2.146-12.167 6.437-16.784-2.011-4.942-1.821-10.482.569-16.619 1.576-.49 3.912-.123 7.007 1.099 3.096 1.222 5.364 2.269 6.804 3.137a71.907 71.907 0 0 1 3.462 2.2c5.053-1.412 10.267-2.118 15.643-2.118 5.377 0 10.592.706 15.646 2.118l3.096-1.955c2.117-1.304 4.617-2.499 7.494-3.585 2.879-1.086 5.08-1.385 6.6-.896 2.445 6.138 2.662 11.678.652 16.62 4.291 4.617 6.436 10.213 6.436 16.784 0 4.618-.557 8.704-1.67 12.262-1.114 3.558-2.551 6.409-4.317 8.554-1.766 2.146-3.966 3.952-6.6 5.418-2.634 1.468-5.187 2.527-7.659 3.179-2.471.651-5.255 1.141-8.35 1.467 2.824 2.444 4.236 6.3 4.236 11.569v17.189c0 .977.34 1.792 1.019 2.443.678.651 1.75.842 3.217.57 12.602-4.181 22.881-11.718 30.838-22.609 7.957-10.889 11.936-23.15 11.936-36.785-.002-11.349-2.801-21.817-8.395-31.404z" class="cls-1"/>
</svg>