<svg xmlns="http://www.w3.org/2000/svg" width="15.98" height="16" preserveAspectRatio="xMidYMid" viewBox="0 0 799 800">
  <path d="M400 800C179.44 800 0 620.562 0 400.002S179.44 0 400 0s400 179.442 400 400.002S620.56 800 400 800zm0-727.273c-180.46 0-327.273 146.817-327.273 327.275 0 180.459 146.813 327.27 327.273 327.27 180.458 0 327.272-146.811 327.272-327.27 0-180.458-146.811-327.275-327.272-327.275zm-.005 193.939c-26.729 0-48.476-21.74-48.476-48.462 0-26.747 21.747-48.507 48.476-48.507 26.73 0 48.476 21.76 48.476 48.507 0 26.722-21.746 48.462-48.476 48.462zm.005 72.728c20.082 0 36.363 16.281 36.363 36.364v218.181c0 20.082-16.281 36.364-36.363 36.364s-36.363-16.282-36.363-36.364V375.758c0-20.083 16.281-36.364 36.363-36.364z" class="cls-1"/>
</svg>